<svg xmlns="http://www.w3.org/2000/svg" width="24.595" height="20" viewBox="0 0 24.595 20">
  <path id="twitter" d="M10.726,26A14.267,14.267,0,0,0,25.085,11.641c0-.216,0-.433-.01-.649a10.281,10.281,0,0,0,2.52-2.62,10.228,10.228,0,0,1-2.9.8,5.077,5.077,0,0,0,2.223-2.8A10.039,10.039,0,0,1,23.707,7.6a5.046,5.046,0,0,0-8.728,3.454,5.576,5.576,0,0,0,.128,1.151A14.332,14.332,0,0,1,4.7,6.925a5.061,5.061,0,0,0,1.565,6.742,5.1,5.1,0,0,1-2.284-.63v.069A5.058,5.058,0,0,0,8.03,18.057a4.921,4.921,0,0,1-1.328.177,4.979,4.979,0,0,1-.947-.089,5.047,5.047,0,0,0,4.715,3.5A10.122,10.122,0,0,1,4.2,23.814,9.708,9.708,0,0,1,3,23.745,14.356,14.356,0,0,0,10.727,26" transform="translate(-3 -6)" fill="#1d1d1d"/>
</svg>
