<svg xmlns="http://www.w3.org/2000/svg" width="20" height="20" viewBox="0 0 20 20">
  <path id="instagram" d="M10,0C7.283,0,6.944.012,5.877.06A7.381,7.381,0,0,0,3.45.525,4.893,4.893,0,0,0,1.678,1.678,4.889,4.889,0,0,0,.525,3.45,7.366,7.366,0,0,0,.06,5.877C.01,6.944,0,7.283,0,10s.012,3.056.06,4.123A7.384,7.384,0,0,0,.525,16.55a4.9,4.9,0,0,0,1.153,1.772A4.89,4.89,0,0,0,3.45,19.475a7.39,7.39,0,0,0,2.427.465C6.944,19.99,7.283,20,10,20s3.056-.012,4.123-.06a7.4,7.4,0,0,0,2.427-.465,5.111,5.111,0,0,0,2.925-2.925,7.384,7.384,0,0,0,.465-2.427c.05-1.067.06-1.406.06-4.123s-.012-3.056-.06-4.123a7.392,7.392,0,0,0-.465-2.427,4.908,4.908,0,0,0-1.153-1.772A4.873,4.873,0,0,0,16.55.525,7.355,7.355,0,0,0,14.123.06C13.056.01,12.717,0,10,0Zm0,1.8c2.669,0,2.987.013,4.042.059A5.513,5.513,0,0,1,15.9,2.2a3.291,3.291,0,0,1,1.9,1.9,5.514,5.514,0,0,1,.344,1.856c.048,1.055.058,1.372.058,4.042s-.012,2.987-.062,4.042a5.624,5.624,0,0,1-.351,1.856,3.175,3.175,0,0,1-.749,1.152,3.12,3.12,0,0,1-1.15.747,5.555,5.555,0,0,1-1.863.344c-1.062.048-1.374.058-4.049.058s-2.988-.012-4.049-.062a5.674,5.674,0,0,1-1.863-.351,3.1,3.1,0,0,1-1.149-.749,3.037,3.037,0,0,1-.75-1.15,5.689,5.689,0,0,1-.35-1.863c-.038-1.05-.051-1.374-.051-4.037S1.776,7,1.813,5.935a5.669,5.669,0,0,1,.35-1.862,2.958,2.958,0,0,1,.75-1.151,2.961,2.961,0,0,1,1.149-.748,5.535,5.535,0,0,1,1.851-.351c1.062-.038,1.375-.05,4.049-.05L10,1.8Zm0,3.065A5.135,5.135,0,1,0,15.135,10,5.135,5.135,0,0,0,10,4.865Zm0,8.468A3.333,3.333,0,1,1,13.333,10,3.332,3.332,0,0,1,10,13.333Zm6.538-8.671a1.2,1.2,0,0,1-2.4,0,1.2,1.2,0,0,1,2.4,0Z" fill="#1d1d1d"/>
</svg>
