<svg xmlns="http://www.w3.org/2000/svg" xmlns:xlink="http://www.w3.org/1999/xlink" width="90.762" height="64.038" viewBox="0 0 90.762 64.038">
  <defs>
    <linearGradient id="linear-gradient" x1="1.051" y1="0.64" x2="-0.007" y2="0.336" gradientUnits="objectBoundingBox">
      <stop offset="0.19" stop-color="#231f20" stop-opacity="0.502"/>
      <stop offset="0.798" stop-color="#bcbbbb" stop-opacity="0.149"/>
      <stop offset="1" stop-color="#fff" stop-opacity="0"/>
    </linearGradient>
  </defs>
  <g id="LOGO" transform="translate(-343.487 -126.275)">
    <g id="Group_3" data-name="Group 3" transform="translate(343.487 173.094)">
      <g id="Group_1" data-name="Group 1" transform="translate(15.134 3.556)">
        <path id="Path_1" data-name="Path 1" d="M417.525,370.789l1.633-3.948-1.181-2.848a1.769,1.769,0,0,0-2.311-.956h0a1.769,1.769,0,0,0-.956,2.311l2.806,6.766A1.761,1.761,0,0,1,417.525,370.789Z" transform="translate(-414.574 -362.9)" fill="#98989a"/>
        <path id="Path_2" data-name="Path 2" d="M417.525,370.789l1.633-3.948-1.181-2.848a1.769,1.769,0,0,0-2.311-.956h0a1.769,1.769,0,0,0-.956,2.311l2.806,6.766A1.761,1.761,0,0,1,417.525,370.789Z" transform="translate(-414.574 -362.9)" fill="url(#linear-gradient)"/>
        <path id="Path_3" data-name="Path 3" d="M433.061,363.028a1.769,1.769,0,0,0-2.311.958l-1.178,2.848-1.633,3.948a1.761,1.761,0,0,0-.009,1.326l.011.027a1.769,1.769,0,0,0,1.614,1.091h.01c.05,0,.1,0,.151-.006h.024c.049,0,.1-.012.147-.021l.026,0q.083-.016.166-.041h0a1.794,1.794,0,0,0,.17-.061h0c.055-.023.108-.048.159-.076.017-.009.033-.02.05-.03.033-.019.066-.038.1-.059s.048-.035.072-.052.045-.032.066-.05.05-.044.074-.066.036-.032.053-.049.048-.052.072-.078.03-.032.044-.049.049-.064.073-.1c.01-.014.02-.027.03-.041q.046-.069.087-.143l0,0a1.789,1.789,0,0,0,.077-.163l.006-.015,2.8-6.78A1.769,1.769,0,0,0,433.061,363.028Z" transform="translate(-424.988 -362.893)" fill="#fff"/>
      </g>
      <g id="Group_2" data-name="Group 2" transform="translate(0 0)">
        <path id="Path_4" data-name="Path 4" d="M466.89,364.04h1.335l3.379,7.574,3.28-7.574h1.353l-5.87,13.418h-1.336l1.891-4.329Z" transform="translate(-440.618 -360.24)" fill="#fff"/>
        <path id="Path_5" data-name="Path 5" d="M519.947,364.188l-.807.842a2.937,2.937,0,0,0-1.981-.986,1.507,1.507,0,0,0-1.058.4,1.259,1.259,0,0,0-.439.959,1.366,1.366,0,0,0,.367.9,4.786,4.786,0,0,0,1.515,1.049,5.534,5.534,0,0,1,1.918,1.407,2.6,2.6,0,0,1,.493,1.551,2.76,2.76,0,0,1-.847,2.039,2.891,2.891,0,0,1-2.12.838,3.794,3.794,0,0,1-1.627-.363,3.4,3.4,0,0,1-1.277-1.017l.8-.905A2.76,2.76,0,0,0,516.935,372a1.837,1.837,0,0,0,1.286-.489,1.506,1.506,0,0,0,.534-1.143,1.472,1.472,0,0,0-.35-.968,5.561,5.561,0,0,0-1.587-1.058,4.842,4.842,0,0,1-1.811-1.353,2.517,2.517,0,0,1-.484-1.523,2.476,2.476,0,0,1,.766-1.86,2.659,2.659,0,0,1,1.923-.739A4.019,4.019,0,0,1,519.947,364.188Z" transform="translate(-477.765 -359.312)" fill="#fff"/>
        <path id="Path_6" data-name="Path 6" d="M559.915,365.156l-1,.627a4.193,4.193,0,0,0-3.549-1.739,4.11,4.11,0,0,0-2.989,1.157,3.779,3.779,0,0,0-1.188,2.814,4.02,4.02,0,0,0,.547,2.03,3.8,3.8,0,0,0,1.5,1.475,4.559,4.559,0,0,0,5.683-1.2l1,.655a4.723,4.723,0,0,1-1.9,1.635,6.118,6.118,0,0,1-2.711.578,5.343,5.343,0,0,1-3.859-1.479,4.8,4.8,0,0,1-1.537-3.594,5.138,5.138,0,0,1,.721-2.658,5.085,5.085,0,0,1,1.972-1.909,5.746,5.746,0,0,1,2.81-.685,6.038,6.038,0,0,1,1.878.3,5.247,5.247,0,0,1,1.546.775A4.146,4.146,0,0,1,559.915,365.156Z" transform="translate(-505.965 -359.312)" fill="#fff"/>
        <path id="Path_7" data-name="Path 7" d="M611.15,362.862a4.881,4.881,0,0,1,3.764,1.64,5.149,5.149,0,0,1,1.353,3.559,5.1,5.1,0,0,1-1.434,3.59,5.188,5.188,0,0,1-7.372,0,5.274,5.274,0,0,1-.076-7.139A4.868,4.868,0,0,1,611.15,362.862Zm0,1.237a3.628,3.628,0,0,0-2.7,1.165,3.9,3.9,0,0,0-1.129,2.815,4.042,4.042,0,0,0,.515,1.994,3.613,3.613,0,0,0,1.394,1.425,3.971,3.971,0,0,0,3.85,0,3.594,3.594,0,0,0,1.385-1.425,4.072,4.072,0,0,0,.511-1.994,3.9,3.9,0,0,0-1.129-2.815A3.628,3.628,0,0,0,611.15,364.1Z" transform="translate(-550.136 -359.312)" fill="#fff"/>
        <path id="Path_8" data-name="Path 8" d="M343.487,348.8h1.327v13.292h-1.327Z" transform="translate(-343.487 -348.243)" fill="#fff"/>
        <path id="Path_9" data-name="Path 9" d="M369.449,364.258a4.312,4.312,0,0,0-6.621-.007,5.474,5.474,0,0,0-1.384,3.68v5.105h1.312v-5.11a4.083,4.083,0,0,1,1.023-2.721,3.072,3.072,0,0,1,4.719.006,4.088,4.088,0,0,1,1.017,2.733v5.092h1.312v-5.094A5.454,5.454,0,0,0,369.449,364.258Z" transform="translate(-357.621 -359.189)" fill="#fff"/>
        <path id="Path_10" data-name="Path 10" d="M730.976,369.683l1.058.565a5.511,5.511,0,0,1-1.2,1.658,4.847,4.847,0,0,1-1.55.954,5.438,5.438,0,0,1-1.945.327,4.69,4.69,0,0,1-3.756-1.573,5.379,5.379,0,0,1-.206-6.888,4.687,4.687,0,0,1,3.9-1.864,4.845,4.845,0,0,1,4.007,1.909,5.265,5.265,0,0,1,1.076,3.352h-8.829a4.023,4.023,0,0,0,1.093,2.819,3.477,3.477,0,0,0,2.608,1.1,4.144,4.144,0,0,0,1.461-.264,3.91,3.91,0,0,0,1.205-.695A5.9,5.9,0,0,0,730.976,369.683Zm0-2.644a4.173,4.173,0,0,0-.735-1.618,3.5,3.5,0,0,0-1.282-.977,3.925,3.925,0,0,0-1.676-.372A3.593,3.593,0,0,0,724.8,365a4.242,4.242,0,0,0-1.139,2.035Z" transform="translate(-641.595 -359.312)" fill="#fff"/>
        <path id="Path_11" data-name="Path 11" d="M673.132,358.4a5.516,5.516,0,0,0,1.318-3.465v-8.748H673.2v5.485a5.322,5.322,0,0,0-1.784-1.456,4.878,4.878,0,0,0-2.16-.479,4.8,4.8,0,0,0-3.558,1.514,5.068,5.068,0,0,0-1.479,3.675,4.976,4.976,0,0,0,1.488,3.63,4.857,4.857,0,0,0,3.585,1.506,5.55,5.55,0,0,0,2.254-.462,4.655,4.655,0,0,0,1.147-.749h0l.012-.011A5.3,5.3,0,0,0,673.132,358.4Zm-3.737.452a3.792,3.792,0,0,1-1.959-.524,3.868,3.868,0,0,1-1.42-1.456,3.967,3.967,0,0,1-.529-1.99,4.032,4.032,0,0,1,.534-1.994,3.838,3.838,0,0,1,1.434-1.479,3.759,3.759,0,0,1,1.923-.524,3.962,3.962,0,0,1,1.972.524,3.656,3.656,0,0,1,1.434,1.425,4.061,4.061,0,0,1,.5,2.012,3.914,3.914,0,0,1-1.129,2.859A3.727,3.727,0,0,1,669.395,358.854Z" transform="translate(-595.932 -346.189)" fill="#fff"/>
      </g>
    </g>
    <g id="Group_4" data-name="Group 4" transform="translate(370.693 126.275)">
      <path id="Path_12" data-name="Path 12" d="M482.979,157.587l6.476-15.656-4.684-11.294a7.014,7.014,0,0,0-9.167-3.792h0a7.014,7.014,0,0,0-3.792,9.167l11.13,26.833A6.987,6.987,0,0,1,482.979,157.587Z" transform="translate(-471.275 -126.301)" fill="#98989a"/>
      <path id="Path_13" data-name="Path 13" d="M482.979,157.587l6.476-15.656-4.684-11.294a7.014,7.014,0,0,0-9.167-3.792h0a7.014,7.014,0,0,0-3.792,9.167l11.13,26.833A6.987,6.987,0,0,1,482.979,157.587Z" transform="translate(-471.275 -126.301)" fill="url(#linear-gradient)"/>
      <path id="Path_14" data-name="Path 14" d="M544.592,126.809a7.014,7.014,0,0,0-9.163,3.8L530.757,141.9l-6.476,15.656a6.986,6.986,0,0,0-.037,5.259l.044.107a7.015,7.015,0,0,0,6.4,4.327l.038,0c.2,0,.4-.009.6-.026.031,0,.062,0,.093-.005.194-.018.388-.048.582-.083.034-.006.07-.009.1-.016q.33-.064.658-.162l.015,0a7.085,7.085,0,0,0,.675-.241h0c.218-.09.428-.191.632-.3.068-.036.132-.079.2-.118.13-.075.261-.15.385-.233.1-.065.19-.138.284-.208s.178-.128.262-.2c.1-.083.2-.174.293-.263.071-.065.144-.128.212-.2.1-.1.191-.2.284-.309.058-.065.119-.128.174-.2.1-.123.2-.254.289-.385.039-.054.081-.106.118-.161q.184-.274.344-.568l.009-.015a7.124,7.124,0,0,0,.307-.647l.025-.061,11.123-26.889A7.014,7.014,0,0,0,544.592,126.809Z" transform="translate(-512.577 -126.275)" fill="#fff"/>
    </g>
  </g>
</svg>
