<svg xmlns="http://www.w3.org/2000/svg" width="16.54" height="20" viewBox="0 0 16.54 20">
  <path id="youtube" d="M11.079,13.884v2.355q0,.748-.435.748a.716.716,0,0,1-.5-.246V13.382a.716.716,0,0,1,.5-.246q.435,0,.435.748Zm3.772.011v.513h-1v-.513q0-.759.5-.759T14.851,13.895ZM4.07,11.462H5.264V10.413H1.781v1.049H2.953v6.351H4.069V11.462Zm3.214,6.351h.993V12.3H7.284v4.219q-.335.469-.636.469-.2,0-.234-.234a3.116,3.116,0,0,1-.011-.391V12.3H5.409v4.364a2.759,2.759,0,0,0,.089.815.6.6,0,0,0,.647.413,1.634,1.634,0,0,0,1.138-.681v.6Zm4.788-1.652v-2.2a3.964,3.964,0,0,0-.1-1.105.775.775,0,0,0-.792-.625,1.344,1.344,0,0,0-1.038.6V10.413H9.148v7.4h.993v-.536a1.384,1.384,0,0,0,1.038.614.772.772,0,0,0,.792-.614,4.1,4.1,0,0,0,.1-1.116Zm3.772-.112V15.9H14.829a5.54,5.54,0,0,1-.022.681.427.427,0,0,1-.447.4q-.513,0-.513-.77v-.971h2V14.1a2.215,2.215,0,0,0-.3-1.294,1.525,1.525,0,0,0-2.377,0,2.151,2.151,0,0,0-.313,1.294v1.931a2.094,2.094,0,0,0,.324,1.294,1.432,1.432,0,0,0,1.206.569,1.382,1.382,0,0,0,1.44-1.194,4.935,4.935,0,0,0,.022-.647ZM9.059,5.859V3.516q0-.77-.48-.77t-.48.77V5.859q0,.781.48.781T9.059,5.859Zm8.024,8.382a19.347,19.347,0,0,1-.29,3.906,2.12,2.12,0,0,1-.647,1.1,1.95,1.95,0,0,1-1.138.513A59.657,59.657,0,0,1,8.813,20a59.657,59.657,0,0,1-6.194-.234,1.981,1.981,0,0,1-1.144-.513,2.038,2.038,0,0,1-.642-1.1,18.95,18.95,0,0,1-.29-3.906,19.347,19.347,0,0,1,.29-3.906,2.12,2.12,0,0,1,.647-1.1A2.021,2.021,0,0,1,2.63,8.706q2.042-.223,6.183-.223t6.194.223a2.1,2.1,0,0,1,1.786,1.629,18.95,18.95,0,0,1,.29,3.906ZM5.945,0H7.083L5.732,4.453V7.478H4.616V4.453a18.873,18.873,0,0,0-.681-2.366Q3.522.938,3.21,0H4.393l.792,2.935Zm4.129,3.717V5.67a2.2,2.2,0,0,1-.313,1.317,1.39,1.39,0,0,1-1.183.569,1.379,1.379,0,0,1-1.172-.569A2.229,2.229,0,0,1,7.094,5.67V3.717a2.174,2.174,0,0,1,.313-1.306,1.379,1.379,0,0,1,1.172-.569,1.39,1.39,0,0,1,1.183.569A2.174,2.174,0,0,1,10.074,3.717Zm3.739-1.808V7.478H12.8V6.864a1.607,1.607,0,0,1-1.149.692.62.62,0,0,1-.658-.413,2.859,2.859,0,0,1-.089-.837v-4.4h1.016V6a2.935,2.935,0,0,0,.011.391q.033.246.234.246.3,0,.636-.48V1.908h1.016Z" transform="translate(-0.543)" fill="#1d1d1d"/>
</svg>
